<svg xmlns="http://www.w3.org/2000/svg" xmlns:xlink="http://www.w3.org/1999/xlink" version="1.1" data-diagram-type="SEQUENCE" style="width:1308px;height:1563px;background:#FFFFFF;" width="1308px" height="1563px" viewBox="0 0 1308 1563" zoomAndPan="magnify" preserveAspectRatio="none" contentStyleType="text/css"><?plantuml 1.2026.8?><defs/><g font-family="sans-serif" lengthAdjust="spacing"><g class="title" data-source-line="1"><text x="450.612" y="29.966" fill="#000" font-size="14" textLength="405.704" font-weight="700">Create, Review and Deploy a Plan — Current API Sequence</text></g><rect x="35.675" y="299.666" width="1207.782" height="272.63" fill="none" style="stroke:#000;stroke-width:1.5;"/><rect x="35.675" y="1121.298" width="1207.782" height="272.63" fill="none" style="stroke:#000;stroke-width:1.5;"/><g><title>IT Helpdesk</title><rect x="48.175" y="129.136" width="8" height="1344.204" fill="#000" fill-opacity="0"/><line x1="51.675" y1="129.136" x2="51.675" y2="1473.34" style="stroke:#181818;stroke-width:0.5;stroke-dasharray:5,5;"/></g><g><title>Manager</title><rect x="132.523" y="129.136" width="8" height="1344.204" fill="#000" fill-opacity="0"/><line x1="136.023" y1="129.136" x2="136.023" y2="1473.34" style="stroke:#181818;stroke-width:0.5;stroke-dasharray:5,5;"/></g><g><title>API client</title><rect x="368.978" y="129.136" width="8" height="1344.204" fill="#000" fill-opacity="0"/><line x1="372.478" y1="129.136" x2="372.478" y2="1473.34" style="stroke:#181818;stroke-width:0.5;stroke-dasharray:5,5;"/></g><g><title>DeploymentPlansController</title><rect x="642.899" y="129.136" width="8" height="1344.204" fill="#000" fill-opacity="0"/><line x1="646.399" y1="129.136" x2="646.399" y2="1473.34" style="stroke:#181818;stroke-width:0.5;stroke-dasharray:5,5;"/></g><g><title>DeploymentPlansService</title><rect x="893.524" y="129.136" width="8" height="1344.204" fill="#000" fill-opacity="0"/><line x1="897.024" y1="129.136" x2="897.024" y2="1473.34" style="stroke:#181818;stroke-width:0.5;stroke-dasharray:5,5;"/></g><g><title>PostgreSQL . Prisma</title><rect x="1223.956" y="129.136" width="8" height="1344.204" fill="#000" fill-opacity="0"/><line x1="1227.456" y1="129.136" x2="1227.456" y2="1473.34" style="stroke:#181818;stroke-width:0.5;stroke-dasharray:5,5;"/></g><text x="10" y="125.034" fill="#000" font-size="14" textLength="77.35">IT Helpdesk</text><ellipse cx="51.675" cy="58.568" rx="8" ry="8" fill="#E2E2F0" style="stroke:#181818;stroke-width:0.5;"/><path d="M51.675,66.568 L51.675,93.568 M38.675,74.568 L64.675,74.568 M51.675,93.568 L38.675,108.568 M51.675,93.568 L64.675,108.568" style="stroke:#181818;stroke-width:0.5;" fill="none"/><text x="103.35" y="125.034" fill="#000" font-size="14" textLength="59.346">Manager</text><ellipse cx="136.023" cy="58.568" rx="8" ry="8" fill="#E2E2F0" style="stroke:#181818;stroke-width:0.5;"/><path d="M136.023,66.568 L136.023,93.568 M123.023,74.568 L149.023,74.568 M136.023,93.568 L123.023,108.568 M136.023,93.568 L149.023,108.568" style="stroke:#181818;stroke-width:0.5;" fill="none"/><text x="338.804" y="125.034" fill="#000" font-size="14" textLength="61.348">API client</text><path d="M351.978,82.068 L351.978,106.068 M351.978,94.068 L368.978,94.068" style="stroke:#181818;stroke-width:0.5;" fill="none"/><ellipse cx="380.978" cy="94.068" rx="12" ry="12" fill="#E2E2F0" style="stroke:#181818;stroke-width:0.5;"/><text x="552.343" y="125.034" fill="#000" font-size="14" textLength="182.111">DeploymentPlansController</text><ellipse cx="646.399" cy="94.068" rx="12" ry="12" fill="#E2E2F0" style="stroke:#181818;stroke-width:0.5;"/><polygon points="642.399,82.068,648.399,77.068,646.399,82.068,648.399,87.068,642.399,82.068" fill="#181818" style="stroke:#181818;stroke-width:1;stroke-linejoin:miter;stroke-miterlimit:10;"/><text x="812.705" y="125.034" fill="#000" font-size="14" textLength="162.637">DeploymentPlansService</text><ellipse cx="897.024" cy="94.068" rx="12" ry="12" fill="#E2E2F0" style="stroke:#181818;stroke-width:0.5;"/><polygon points="893.024,82.068,899.024,77.068,897.024,82.068,899.024,87.068,893.024,82.068" fill="#181818" style="stroke:#181818;stroke-width:1;stroke-linejoin:miter;stroke-miterlimit:10;"/><text x="1156.984" y="125.034" fill="#000" font-size="14" textLength="134.946">PostgreSQL / Prisma</text><path d="M1209.456,74.068 C1209.456,64.068 1227.456,64.068 1227.456,64.068 C1227.456,64.068 1245.456,64.068 1245.456,74.068 L1245.456,100.068 C1245.456,110.068 1227.456,110.068 1227.456,110.068 C1227.456,110.068 1209.456,110.068 1209.456,100.068 L1209.456,74.068" style="stroke:#181818;stroke-width:0.5;" fill="#E2E2F0"/><path d="M1209.456,74.068 C1209.456,84.068 1227.456,84.068 1227.456,84.068 C1227.456,84.068 1245.456,84.068 1245.456,74.068" style="stroke:#181818;stroke-width:0.5;" fill="none"/><text x="10" y="1488.306" fill="#000" font-size="14" textLength="77.35">IT Helpdesk</text><ellipse cx="51.675" cy="1500.908" rx="8" ry="8" fill="#E2E2F0" style="stroke:#181818;stroke-width:0.5;"/><path d="M51.675,1508.908 L51.675,1535.908 M38.675,1516.908 L64.675,1516.908 M51.675,1535.908 L38.675,1550.908 M51.675,1535.908 L64.675,1550.908" style="stroke:#181818;stroke-width:0.5;" fill="none"/><text x="103.35" y="1488.306" fill="#000" font-size="14" textLength="59.346">Manager</text><ellipse cx="136.023" cy="1500.908" rx="8" ry="8" fill="#E2E2F0" style="stroke:#181818;stroke-width:0.5;"/><path d="M136.023,1508.908 L136.023,1535.908 M123.023,1516.908 L149.023,1516.908 M136.023,1535.908 L123.023,1550.908 M136.023,1535.908 L149.023,1550.908" style="stroke:#181818;stroke-width:0.5;" fill="none"/><text x="338.804" y="1488.306" fill="#000" font-size="14" textLength="61.348">API client</text><path d="M351.978,1496.408 L351.978,1520.408 M351.978,1508.408 L368.978,1508.408" style="stroke:#181818;stroke-width:0.5;" fill="none"/><ellipse cx="380.978" cy="1508.408" rx="12" ry="12" fill="#E2E2F0" style="stroke:#181818;stroke-width:0.5;"/><text x="552.343" y="1488.306" fill="#000" font-size="14" textLength="182.111">DeploymentPlansController</text><ellipse cx="646.399" cy="1508.408" rx="12" ry="12" fill="#E2E2F0" style="stroke:#181818;stroke-width:0.5;"/><polygon points="642.399,1496.408,648.399,1491.408,646.399,1496.408,648.399,1501.408,642.399,1496.408" fill="#181818" style="stroke:#181818;stroke-width:1;stroke-linejoin:miter;stroke-miterlimit:10;"/><text x="812.705" y="1488.306" fill="#000" font-size="14" textLength="162.637">DeploymentPlansService</text><ellipse cx="897.024" cy="1508.408" rx="12" ry="12" fill="#E2E2F0" style="stroke:#181818;stroke-width:0.5;"/><polygon points="893.024,1496.408,899.024,1491.408,897.024,1496.408,899.024,1501.408,893.024,1496.408" fill="#181818" style="stroke:#181818;stroke-width:1;stroke-linejoin:miter;stroke-miterlimit:10;"/><text x="1156.984" y="1488.306" fill="#000" font-size="14" textLength="134.946">PostgreSQL / Prisma</text><path d="M1209.456,1502.408 C1209.456,1492.408 1227.456,1492.408 1227.456,1492.408 C1227.456,1492.408 1245.456,1492.408 1245.456,1502.408 L1245.456,1528.408 C1245.456,1538.408 1227.456,1538.408 1227.456,1538.408 C1227.456,1538.408 1209.456,1538.408 1209.456,1528.408 L1209.456,1502.408" style="stroke:#181818;stroke-width:0.5;" fill="#E2E2F0"/><path d="M1209.456,1502.408 C1209.456,1512.408 1227.456,1512.408 1227.456,1512.408 C1227.456,1512.408 1245.456,1512.408 1245.456,1502.408" style="stroke:#181818;stroke-width:0.5;" fill="none"/><polygon points="360.478,156.842,370.478,160.842,360.478,164.842,364.478,160.842" fill="#181818" style="stroke:#181818;stroke-width:1;stroke-linejoin:miter;stroke-miterlimit:10;"/><line x1="51.675" y1="160.842" x2="366.478" y2="160.842" style="stroke:#181818;stroke-width:1;"/><text x="58.675" y="155.033" fill="#000" font-size="13" font-weight="700">1</text><text x="70.111" y="155.033" fill="#000" font-size="13" textLength="204.698">Enter name, device IDs, patch IDs</text><polygon points="634.399,188.548,644.399,192.548,634.399,196.548,638.399,192.548" fill="#181818" style="stroke:#181818;stroke-width:1;stroke-linejoin:miter;stroke-miterlimit:10;"/><line x1="372.478" y1="192.548" x2="640.399" y2="192.548" style="stroke:#181818;stroke-width:1;"/><text x="379.478" y="186.739" fill="#000" font-size="13" font-weight="700">2</text><text x="390.914" y="186.739" fill="#000" font-size="13" textLength="151.073">POST /deployment-plans</text><polygon points="885.024,220.254,895.024,224.254,885.024,228.254,889.024,224.254" fill="#181818" style="stroke:#181818;stroke-width:1;stroke-linejoin:miter;stroke-miterlimit:10;"/><line x1="646.399" y1="224.254" x2="891.024" y2="224.254" style="stroke:#181818;stroke-width:1;"/><text x="653.399" y="218.445" fill="#000" font-size="13" font-weight="700">3</text><text x="664.835" y="218.445" fill="#000" font-size="13" textLength="141.089">create(dto, helpdeskId)</text><polygon points="1215.456,251.96,1225.456,255.96,1215.456,259.96,1219.456,255.96" fill="#181818" style="stroke:#181818;stroke-width:1;stroke-linejoin:miter;stroke-miterlimit:10;"/><line x1="897.024" y1="255.96" x2="1221.456" y2="255.96" style="stroke:#181818;stroke-width:1;"/><text x="904.024" y="250.151" fill="#000" font-size="13" font-weight="700">4</text><text x="915.46" y="250.151" fill="#000" font-size="13" textLength="248.04">findMany(deviceIds), findMany(patchIds)</text><polygon points="908.024,283.666,898.024,287.666,908.024,291.666,904.024,287.666" fill="#181818" style="stroke:#181818;stroke-width:1;stroke-linejoin:miter;stroke-miterlimit:10;"/><line x1="902.024" y1="287.666" x2="1226.456" y2="287.666" style="stroke:#181818;stroke-width:1;stroke-dasharray:2,2;"/><text x="914.024" y="281.857" fill="#000" font-size="13" font-weight="700">5</text><text x="925.46" y="281.857" fill="#000" font-size="13" textLength="71.37">existing IDs</text><path d="M35.675,299.666 L97.978,299.666 L97.978,309.372 L87.978,319.372 L35.675,319.372 L35.675,299.666" style="stroke:#000;stroke-width:1.5;" fill="#EEE"/><rect x="35.675" y="299.666" width="1207.782" height="272.63" fill="none" style="stroke:#000;stroke-width:1.5;"/><text x="50.675" y="314.563" fill="#000" font-size="13" textLength="17.303" font-weight="700">alt</text><text x="112.978" y="313.425" fill="#000" font-size="11" textLength="163.151" font-weight="700">[all devices and patches exist]</text><polygon points="1215.456,349.078,1225.456,353.078,1215.456,357.078,1219.456,353.078" fill="#181818" style="stroke:#181818;stroke-width:1;stroke-linejoin:miter;stroke-miterlimit:10;"/><line x1="897.024" y1="353.078" x2="1221.456" y2="353.078" style="stroke:#181818;stroke-width:1;"/><text x="904.024" y="347.269" fill="#000" font-size="13" font-weight="700">6</text><text x="915.46" y="347.269" fill="#000" font-size="13" textLength="265.46">transaction(create plan, plan devices, tasks)</text><polygon points="908.024,380.784,898.024,384.784,908.024,388.784,904.024,384.784" fill="#181818" style="stroke:#181818;stroke-width:1;stroke-linejoin:miter;stroke-miterlimit:10;"/><line x1="902.024" y1="384.784" x2="1226.456" y2="384.784" style="stroke:#181818;stroke-width:1;stroke-dasharray:2,2;"/><text x="914.024" y="378.975" fill="#000" font-size="13" font-weight="700">7</text><text x="925.46" y="378.975" fill="#000" font-size="13" textLength="267.8">plan(status=DRAFT), tasks(status=PENDING)</text><polygon points="657.399,412.49,647.399,416.49,657.399,420.49,653.399,416.49" fill="#181818" style="stroke:#181818;stroke-width:1;stroke-linejoin:miter;stroke-miterlimit:10;"/><line x1="651.399" y1="416.49" x2="896.024" y2="416.49" style="stroke:#181818;stroke-width:1;stroke-dasharray:2,2;"/><text x="663.399" y="410.681" fill="#000" font-size="13" font-weight="700">8</text><text x="674.835" y="410.681" fill="#000" font-size="13" textLength="76.31">created plan</text><polygon points="383.478,444.196,373.478,448.196,383.478,452.196,379.478,448.196" fill="#181818" style="stroke:#181818;stroke-width:1;stroke-linejoin:miter;stroke-miterlimit:10;"/><line x1="377.478" y1="448.196" x2="645.399" y2="448.196" style="stroke:#181818;stroke-width:1;stroke-dasharray:2,2;"/><text x="389.478" y="442.387" fill="#000" font-size="13" font-weight="700">9</text><text x="400.914" y="442.387" fill="#000" font-size="13" textLength="63.18">201 + plan</text><polygon points="62.675,475.902,52.675,479.902,62.675,483.902,58.675,479.902" fill="#181818" style="stroke:#181818;stroke-width:1;stroke-linejoin:miter;stroke-miterlimit:10;"/><line x1="56.675" y1="479.902" x2="371.478" y2="479.902" style="stroke:#181818;stroke-width:1;stroke-dasharray:2,2;"/><text x="68.675" y="474.093" fill="#000" font-size="13" textLength="14.872" font-weight="700">10</text><text x="87.547" y="474.093" fill="#000" font-size="13" textLength="66.456">Show draft</text><line x1="35.675" y1="488.902" x2="1243.456" y2="488.902" style="stroke:#000;stroke-width:1;stroke-dasharray:2,2;"/><text x="40.675" y="502.661" fill="#000" font-size="11" textLength="136.575" font-weight="700">[missing device or patch]</text><polygon points="657.399,528.59,647.399,532.59,657.399,536.59,653.399,532.59" fill="#181818" style="stroke:#181818;stroke-width:1;stroke-linejoin:miter;stroke-miterlimit:10;"/><line x1="651.399" y1="532.59" x2="896.024" y2="532.59" style="stroke:#181818;stroke-width:1;stroke-dasharray:2,2;"/><text x="663.399" y="526.781" fill="#000" font-size="13" textLength="14.872" font-weight="700">11</text><text x="682.271" y="526.781" fill="#000" font-size="13" textLength="120.731">NotFoundException</text><polygon points="383.478,560.296,373.478,564.296,383.478,568.296,379.478,564.296" fill="#181818" style="stroke:#181818;stroke-width:1;stroke-linejoin:miter;stroke-miterlimit:10;"/><line x1="377.478" y1="564.296" x2="645.399" y2="564.296" style="stroke:#181818;stroke-width:1;stroke-dasharray:2,2;"/><text x="389.478" y="558.487" fill="#000" font-size="13" textLength="14.872" font-weight="700">12</text><text x="408.35" y="558.487" fill="#000" font-size="13" textLength="22.308">404</text><path d="M45.942,591.296 L45.942,636.296 L461.942,636.296 L461.942,601.296 L451.942,591.296 L45.942,591.296" style="stroke:#181818;stroke-width:0.5;" fill="#FEFFDD"/><path d="M451.942,591.296 L451.942,601.296 L461.942,601.296 L451.942,591.296" style="stroke:#181818;stroke-width:0.5;" fill="#FEFFDD"/><text x="51.942" y="610.193" fill="#000" font-size="13" textLength="395.616">No submit-for-approval endpoint or Manager review form exists.</text><text x="51.942" y="627.899" fill="#000" font-size="13" textLength="297.895">A Manager currently calls the review API directly.</text><polygon points="360.478,661.414,370.478,665.414,360.478,669.414,364.478,665.414" fill="#181818" style="stroke:#181818;stroke-width:1;stroke-linejoin:miter;stroke-miterlimit:10;"/><line x1="136.023" y1="665.414" x2="366.478" y2="665.414" style="stroke:#181818;stroke-width:1;"/><text x="143.023" y="659.605" fill="#000" font-size="13" textLength="14.872" font-weight="700">13</text><text x="161.895" y="659.605" fill="#000" font-size="13" textLength="193.583">Review plan; choose APPROVED</text><polygon points="634.399,693.12,644.399,697.12,634.399,701.12,638.399,697.12" fill="#181818" style="stroke:#181818;stroke-width:1;stroke-linejoin:miter;stroke-miterlimit:10;"/><line x1="372.478" y1="697.12" x2="640.399" y2="697.12" style="stroke:#181818;stroke-width:1;"/><text x="379.478" y="691.311" fill="#000" font-size="13" textLength="14.872" font-weight="700">14</text><text x="398.35" y="691.311" fill="#000" font-size="13" textLength="231.049">PATCH /deployment-plans/{id}/review</text><polygon points="885.024,724.826,895.024,728.826,885.024,732.826,889.024,728.826" fill="#181818" style="stroke:#181818;stroke-width:1;stroke-linejoin:miter;stroke-miterlimit:10;"/><line x1="646.399" y1="728.826" x2="891.024" y2="728.826" style="stroke:#181818;stroke-width:1;"/><text x="653.399" y="723.017" fill="#000" font-size="13" textLength="14.872" font-weight="700">15</text><text x="672.271" y="723.017" fill="#000" font-size="13" textLength="207.753">review(id, APPROVED, managerId)</text><polygon points="1215.456,756.532,1225.456,760.532,1215.456,764.532,1219.456,760.532" fill="#181818" style="stroke:#181818;stroke-width:1;stroke-linejoin:miter;stroke-miterlimit:10;"/><line x1="897.024" y1="760.532" x2="1221.456" y2="760.532" style="stroke:#181818;stroke-width:1;"/><text x="904.024" y="754.723" fill="#000" font-size="13" textLength="14.872" font-weight="700">16</text><text x="922.896" y="754.723" fill="#000" font-size="13" textLength="114.985">findUnique(planId)</text><polygon points="908.024,788.238,898.024,792.238,908.024,796.238,904.024,792.238" fill="#181818" style="stroke:#181818;stroke-width:1;stroke-linejoin:miter;stroke-miterlimit:10;"/><line x1="902.024" y1="792.238" x2="1226.456" y2="792.238" style="stroke:#181818;stroke-width:1;stroke-dasharray:2,2;"/><text x="914.024" y="786.429" fill="#000" font-size="13" textLength="14.872" font-weight="700">17</text><text x="932.896" y="786.429" fill="#000" font-size="13" textLength="26.676">plan</text><polygon points="1215.456,819.944,1225.456,823.944,1215.456,827.944,1219.456,823.944" fill="#181818" style="stroke:#181818;stroke-width:1;stroke-linejoin:miter;stroke-miterlimit:10;"/><line x1="897.024" y1="823.944" x2="1221.456" y2="823.944" style="stroke:#181818;stroke-width:1;"/><text x="904.024" y="818.135" fill="#000" font-size="13" textLength="14.872" font-weight="700">18</text><text x="922.896" y="818.135" fill="#000" font-size="13" textLength="258.271">update(status, note, reviewer, reviewedAt)</text><polygon points="908.024,851.65,898.024,855.65,908.024,859.65,904.024,855.65" fill="#181818" style="stroke:#181818;stroke-width:1;stroke-linejoin:miter;stroke-miterlimit:10;"/><line x1="902.024" y1="855.65" x2="1226.456" y2="855.65" style="stroke:#181818;stroke-width:1;stroke-dasharray:2,2;"/><text x="914.024" y="849.841" fill="#000" font-size="13" textLength="14.872" font-weight="700">19</text><text x="932.896" y="849.841" fill="#000" font-size="13" textLength="85.592">reviewed plan</text><polygon points="657.399,883.356,647.399,887.356,657.399,891.356,653.399,887.356" fill="#181818" style="stroke:#181818;stroke-width:1;stroke-linejoin:miter;stroke-miterlimit:10;"/><line x1="651.399" y1="887.356" x2="896.024" y2="887.356" style="stroke:#181818;stroke-width:1;stroke-dasharray:2,2;"/><text x="663.399" y="881.547" fill="#000" font-size="13" textLength="14.872" font-weight="700">20</text><text x="682.271" y="881.547" fill="#000" font-size="13" textLength="85.592">reviewed plan</text><polygon points="383.478,915.062,373.478,919.062,383.478,923.062,379.478,919.062" fill="#181818" style="stroke:#181818;stroke-width:1;stroke-linejoin:miter;stroke-miterlimit:10;"/><line x1="377.478" y1="919.062" x2="645.399" y2="919.062" style="stroke:#181818;stroke-width:1;stroke-dasharray:2,2;"/><text x="389.478" y="913.253" fill="#000" font-size="13" textLength="14.872" font-weight="700">21</text><text x="408.35" y="913.253" fill="#000" font-size="13" textLength="63.18">200 + plan</text><polygon points="147.023,946.768,137.023,950.768,147.023,954.768,143.023,950.768" fill="#181818" style="stroke:#181818;stroke-width:1;stroke-linejoin:miter;stroke-miterlimit:10;"/><line x1="141.023" y1="950.768" x2="371.478" y2="950.768" style="stroke:#181818;stroke-width:1;stroke-dasharray:2,2;"/><text x="153.023" y="944.959" fill="#000" font-size="13" textLength="14.872" font-weight="700">22</text><text x="171.895" y="944.959" fill="#000" font-size="13" textLength="128.791">Show approval result</text><polygon points="360.478,978.474,370.478,982.474,360.478,986.474,364.478,982.474" fill="#181818" style="stroke:#181818;stroke-width:1;stroke-linejoin:miter;stroke-miterlimit:10;"/><line x1="51.675" y1="982.474" x2="366.478" y2="982.474" style="stroke:#181818;stroke-width:1;"/><text x="58.675" y="976.665" fill="#000" font-size="13" textLength="14.872" font-weight="700">23</text><text x="77.547" y="976.665" fill="#000" font-size="13" textLength="134.55">Deploy approved plan</text><polygon points="634.399,1010.18,644.399,1014.18,634.399,1018.18,638.399,1014.18" fill="#181818" style="stroke:#181818;stroke-width:1;stroke-linejoin:miter;stroke-miterlimit:10;"/><line x1="372.478" y1="1014.18" x2="640.399" y2="1014.18" style="stroke:#181818;stroke-width:1;"/><text x="379.478" y="1008.371" fill="#000" font-size="13" textLength="14.872" font-weight="700">24</text><text x="398.35" y="1008.371" fill="#000" font-size="13" textLength="223.145">POST /deployment-plans/{id}/deploy</text><polygon points="885.024,1041.886,895.024,1045.886,885.024,1049.886,889.024,1045.886" fill="#181818" style="stroke:#181818;stroke-width:1;stroke-linejoin:miter;stroke-miterlimit:10;"/><line x1="646.399" y1="1045.886" x2="891.024" y2="1045.886" style="stroke:#181818;stroke-width:1;"/><text x="653.399" y="1040.077" fill="#000" font-size="13" textLength="14.872" font-weight="700">25</text><text x="672.271" y="1040.077" fill="#000" font-size="13" textLength="60.32">deploy(id)</text><polygon points="1215.456,1073.592,1225.456,1077.592,1215.456,1081.592,1219.456,1077.592" fill="#181818" style="stroke:#181818;stroke-width:1;stroke-linejoin:miter;stroke-miterlimit:10;"/><line x1="897.024" y1="1077.592" x2="1221.456" y2="1077.592" style="stroke:#181818;stroke-width:1;"/><text x="904.024" y="1071.783" fill="#000" font-size="13" textLength="14.872" font-weight="700">26</text><text x="922.896" y="1071.783" fill="#000" font-size="13" textLength="114.985">findUnique(planId)</text><polygon points="908.024,1105.298,898.024,1109.298,908.024,1113.298,904.024,1109.298" fill="#181818" style="stroke:#181818;stroke-width:1;stroke-linejoin:miter;stroke-miterlimit:10;"/><line x1="902.024" y1="1109.298" x2="1226.456" y2="1109.298" style="stroke:#181818;stroke-width:1;stroke-dasharray:2,2;"/><text x="914.024" y="1103.489" fill="#000" font-size="13" textLength="14.872" font-weight="700">27</text><text x="932.896" y="1103.489" fill="#000" font-size="13" textLength="145.873">plan(status=APPROVED)</text><path d="M35.675,1121.298 L97.978,1121.298 L97.978,1131.004 L87.978,1141.004 L35.675,1141.004 L35.675,1121.298" style="stroke:#000;stroke-width:1.5;" fill="#EEE"/><rect x="35.675" y="1121.298" width="1207.782" height="272.63" fill="none" style="stroke:#000;stroke-width:1.5;"/><text x="50.675" y="1136.195" fill="#000" font-size="13" textLength="17.303" font-weight="700">alt</text><text x="112.978" y="1135.057" fill="#000" font-size="11" textLength="59.367" font-weight="700">[approved]</text><polygon points="1215.456,1170.71,1225.456,1174.71,1215.456,1178.71,1219.456,1174.71" fill="#181818" style="stroke:#181818;stroke-width:1;stroke-linejoin:miter;stroke-miterlimit:10;"/><line x1="897.024" y1="1174.71" x2="1221.456" y2="1174.71" style="stroke:#181818;stroke-width:1;"/><text x="904.024" y="1168.901" fill="#000" font-size="13" textLength="14.872" font-weight="700">28</text><text x="922.896" y="1168.901" fill="#000" font-size="13" textLength="287.56">transaction(plan=DEPLOYING, tasks=PENDING)</text><polygon points="908.024,1202.416,898.024,1206.416,908.024,1210.416,904.024,1206.416" fill="#181818" style="stroke:#181818;stroke-width:1;stroke-linejoin:miter;stroke-miterlimit:10;"/><line x1="902.024" y1="1206.416" x2="1226.456" y2="1206.416" style="stroke:#181818;stroke-width:1;stroke-dasharray:2,2;"/><text x="914.024" y="1200.607" fill="#000" font-size="13" textLength="14.872" font-weight="700">29</text><text x="932.896" y="1200.607" fill="#000" font-size="13" textLength="81.393">updated plan</text><polygon points="657.399,1234.122,647.399,1238.122,657.399,1242.122,653.399,1238.122" fill="#181818" style="stroke:#181818;stroke-width:1;stroke-linejoin:miter;stroke-miterlimit:10;"/><line x1="651.399" y1="1238.122" x2="896.024" y2="1238.122" style="stroke:#181818;stroke-width:1;stroke-dasharray:2,2;"/><text x="663.399" y="1232.313" fill="#000" font-size="13" textLength="14.872" font-weight="700">30</text><text x="682.271" y="1232.313" fill="#000" font-size="13" textLength="81.393">updated plan</text><polygon points="383.478,1265.828,373.478,1269.828,383.478,1273.828,379.478,1269.828" fill="#181818" style="stroke:#181818;stroke-width:1;stroke-linejoin:miter;stroke-miterlimit:10;"/><line x1="377.478" y1="1269.828" x2="645.399" y2="1269.828" style="stroke:#181818;stroke-width:1;stroke-dasharray:2,2;"/><text x="389.478" y="1264.019" fill="#000" font-size="13" textLength="14.872" font-weight="700">31</text><text x="408.35" y="1264.019" fill="#000" font-size="13" textLength="63.18">201 + plan</text><polygon points="62.675,1297.534,52.675,1301.534,62.675,1305.534,58.675,1301.534" fill="#181818" style="stroke:#181818;stroke-width:1;stroke-linejoin:miter;stroke-miterlimit:10;"/><line x1="56.675" y1="1301.534" x2="371.478" y2="1301.534" style="stroke:#181818;stroke-width:1;stroke-dasharray:2,2;"/><text x="68.675" y="1295.725" fill="#000" font-size="13" textLength="14.872" font-weight="700">32</text><text x="87.547" y="1295.725" fill="#000" font-size="13" textLength="149.838">Show DEPLOYING status</text><line x1="35.675" y1="1310.534" x2="1243.456" y2="1310.534" style="stroke:#000;stroke-width:1;stroke-dasharray:2,2;"/><text x="40.675" y="1324.293" fill="#000" font-size="11" textLength="81.025" font-weight="700">[not approved]</text><polygon points="657.399,1350.222,647.399,1354.222,657.399,1358.222,653.399,1354.222" fill="#181818" style="stroke:#181818;stroke-width:1;stroke-linejoin:miter;stroke-miterlimit:10;"/><line x1="651.399" y1="1354.222" x2="896.024" y2="1354.222" style="stroke:#181818;stroke-width:1;stroke-dasharray:2,2;"/><text x="663.399" y="1348.413" fill="#000" font-size="13" textLength="14.872" font-weight="700">33</text><text x="682.271" y="1348.413" fill="#000" font-size="13" textLength="133.055">BadRequestException</text><polygon points="383.478,1381.928,373.478,1385.928,383.478,1389.928,379.478,1385.928" fill="#181818" style="stroke:#181818;stroke-width:1;stroke-linejoin:miter;stroke-miterlimit:10;"/><line x1="377.478" y1="1385.928" x2="645.399" y2="1385.928" style="stroke:#181818;stroke-width:1;stroke-dasharray:2,2;"/><text x="389.478" y="1380.119" fill="#000" font-size="13" textLength="14.872" font-weight="700">34</text><text x="408.35" y="1380.119" fill="#000" font-size="13" textLength="22.308">400</text><path d="M824.628,1412.928 L824.628,1457.928 L1299.628,1457.928 L1299.628,1422.928 L1289.628,1412.928 L824.628,1412.928" style="stroke:#181818;stroke-width:0.5;" fill="#FEFFDD"/><path d="M1289.628,1412.928 L1289.628,1422.928 L1299.628,1422.928 L1289.628,1412.928" style="stroke:#181818;stroke-width:0.5;" fill="#FEFFDD"/><text x="857.677" y="1431.825" fill="#000" font-size="13" textLength="349.544">The current backend stops after marking tasks PENDING.</text><text x="857.677" y="1449.531" fill="#000" font-size="13" textLength="400.127">Agent download, installation and result callbacks are future work.</text><?plantuml-src fLNRRXen47ttLunu0dK9jCfJgrGYG1gaDDa6MgcFPcs2XTVUsjvSL5NgH_GB-oKTNtP3I4XlB-2rpymSp-NO2ISvZ0sdZcTmoQy5lm6g64nu9VKTKCWbLV3p-myOryPmvM2Kps3ElzHS5PpGscbLbqjkYDq8LL53Ix1holIDK5Umej9oGcZXj87ER06dN5QCsqq7g6q_qlbxgkWLEbhgMZ5gxg3ZGnLIODI07uSbARHoHaleH8ubxdcITXpt9JSHtNxkjPXpSoqA7k1fJHXrT4ajXqwkhRioVFxX30QG6s5B6f2JOq8Qwj1_csZ1QvWgnmqeMc8g6VVUO3Qn6LJK5Mk_90dgZLfsQ9XVp1SmO2svVkNPaIqCMYI222z2kRhCwGpMYSYCzKY3GF3a674heHWczQuRoSoOxMNtcu6LtoC8xZy8m6-5TRv-dZEL3gYKwKOsT4UmnNK04e3ToCuWVwogqAeRsOA_KXP-6qyPE6et61_W4GEFwrf7NMsF9fUZaqKlePlDV7e-cPs_wsq7tqrhZCo2CyHjftExRA-6B-552qeLGa1RuzSmN-iRO8Qk7E7OqL0AQtr-KfMnUKD6dYDphjs9R-pfRS4hdvXd61qE3mbNZ12bCNFwchV3aQKP0FG7jbwMmlLNslHfLHbzJIMWMQK5UhaVA31nh15NnehP0tGmQi-BEDdo3Weij0MtvesDdq0c32_mzC1p0a-9D9RRf9Du-3o-WMAjDUPfbEUN5v-caxsDFrgCJnzt_k2hODy6aSBUAOZ7NS6oDam6PIIsRne-Ae72rVL1FEJ9jdjaM5VCZrjil2ma84lHiI3DYetS4mwRmntFktbu2DlVgCEcKRVQjAb5wjAs4motjNHxfAgHzm1ku_wDEiKQnTszDOh7MAD_BqSpy4sDUr6G4l7VQ8ztS3IPvcSNdr4iaeHiQyUZaB7OhMRihTWExd-rfUK8yRfHPh3LdhpfBfbZoYxzYspTdwdBS5TTakSCdpQ01Ov_aWHOqcBZfzuwNQ7qh_m3LrApyU8NaWafcK5Hhhm9FlrAQefZAHHUHahg-OHd8xPaK1dl61qQ3glQrVXteytcNc5-0G00?></g></svg>